<?xml version="1.0" encoding="UTF-8"?>
<svg version="1.1" xmlns="http://www.w3.org/2000/svg" width="274" height="274">
<path d="M0 0 C90.42 0 180.84 0 274 0 C274 90.42 274 180.84 274 274 C183.58 274 93.16 274 0 274 C0 183.58 0 93.16 0 0 Z " fill="#FCFCFC" transform="translate(0,0)"/>
<path d="M0 0 C7 0 7 0 8.90527344 1.05053711 C9.38512695 1.5378833 9.86498047 2.02522949 10.359375 2.52734375 C10.91214111 3.06786377 11.46490723 3.60838379 12.03442383 4.1652832 C12.60056396 4.75011475 13.1667041 5.33494629 13.75 5.9375 C14.97532998 7.1406077 16.20321971 8.34111366 17.43359375 9.5390625 C18.0354248 10.13106445 18.63725586 10.72306641 19.25732422 11.33300781 C22.48217893 14.41780859 25.98524914 17.14972464 29.46484375 19.9375 C32.76481107 22.62221918 35.91923878 25.4531607 39.08203125 28.296875 C41.32190587 30.28584716 43.65532417 32.13628331 46 34 C47.83875644 35.58966382 49.66117356 37.19720837 51.484375 38.8046875 C53.46344531 40.53176438 55.45285843 42.24302713 57.453125 43.9453125 C58.06744385 44.46867187 58.6817627 44.99203125 59.31469727 45.53125 C60.53769488 46.57201762 61.76208222 47.61115499 62.98803711 48.6484375 C65.69429015 50.95389056 68.25022771 53.256296 70.73828125 55.8046875 C72.87982208 58.20096246 72.87982208 58.20096246 76 59 C76 39.53 76 20.06 76 0 C101.08 0 126.16 0 152 0 C152 39.6 152 79.2 152 120 C144.74241861 120 143.18917819 119.25169923 138.375 114.6875 C137.14771092 113.58009103 135.91983282 112.47333454 134.69140625 111.3671875 C134.07668457 110.80354492 133.46196289 110.23990234 132.82861328 109.65917969 C130.05015539 107.13816503 127.18496224 104.72514377 124.3125 102.3125 C123.78487061 101.86487305 123.25724121 101.41724609 122.71362305 100.95605469 C120.08409604 98.7289773 117.43414876 96.53411528 114.7421875 94.3828125 C113.73414063 93.57585937 112.72609375 92.76890625 111.6875 91.9375 C110.33205078 90.86822266 110.33205078 90.86822266 108.94921875 89.77734375 C108.30597656 89.19082031 107.66273438 88.60429687 107 88 C107 87.34 107 86.68 107 86 C106.41089844 85.73058594 105.82179688 85.46117187 105.21484375 85.18359375 C102.99690589 83.99834654 101.41668451 82.75150104 99.5625 81.0625 C95.83968318 77.73229663 92.06235653 74.47674437 88.25 71.25 C87.69513916 70.77828369 87.14027832 70.30656738 86.56860352 69.82055664 C84.29662556 67.89742705 82.03470708 66.02472596 79.609375 64.296875 C78.81273437 63.65492188 78.81273437 63.65492188 78 63 C78 62.34 78 61.68 78 61 C77.01 61 76.02 61 75 61 C75 80.47 75 99.94 75 120 C50.25 120 25.5 120 0 120 C0 80.4 0 40.8 0 0 Z " fill="#2D7DFB" transform="translate(61,77)"/>
<path d="M0 0 C0.99 0.33 1.98 0.66 3 1 C3 1.66 3 2.32 3 3 C3.99 3.33 4.98 3.66 6 4 C6 4.66 6 5.32 6 6 C6.99 6 7.98 6 9 6 C9.33 7.98 9.66 9.96 10 12 C11.98 11.67 13.96 11.34 16 11 C18 14 18 14 18 17 C18.928125 17 19.85625 17 20.8125 17 C24 18 24 18 25.03125 19.77734375 C25.77531715 21.83468942 26.40201911 23.89631183 27 26 C27.495 26.99 27.495 26.99 28 28 C29.32 27.01 30.64 26.02 32 25 C37.57142857 30.14285714 37.57142857 30.14285714 38 34 C39.32 34.33 40.64 34.66 42 35 C42 37.33333333 42 39.66666667 42 42 C42.8971875 41.7215625 42.8971875 41.7215625 43.8125 41.4375 C46 41 46 41 49 42 C49.33 42.66 49.66 43.32 50 44 C50.66 44 51.32 44 52 44 C52.185625 44.639375 52.37125 45.27875 52.5625 45.9375 C53.036875 46.618125 53.51125 47.29875 54 48 C55.134375 48.144375 56.26875 48.28875 57.4375 48.4375 C61 49 61 49 62.70137024 51.1783905 C64.13746122 54.29867009 64.36371907 56.29081742 64.34057617 59.70825195 C64.34021362 60.84460083 64.33985107 61.98094971 64.33947754 63.1517334 C64.32412964 64.33529419 64.30878174 65.51885498 64.29296875 66.73828125 C64.28994751 67.83410522 64.28692627 68.9299292 64.28381348 70.05895996 C64.26814416 74.14356942 64.2262602 78.22804439 64.1875 82.3125 C64.125625 91.449375 64.06375 100.58625 64 110 C40.24 110 16.48 110 -8 110 C-9.52580313 106.94839374 -9.13852325 103.76768238 -9.12939453 100.42016602 C-9.13114685 99.6377504 -9.13289917 98.85533478 -9.13470459 98.04920959 C-9.13912092 95.45075285 -9.13618333 92.85236375 -9.1328125 90.25390625 C-9.13348621 88.44465624 -9.1344568 86.63540632 -9.13571167 84.82615662 C-9.13718884 81.02382551 -9.13503572 77.22151784 -9.13037109 73.41918945 C-9.12471034 68.570853 -9.12792931 63.72257236 -9.13394356 58.87423801 C-9.13757999 55.13105357 -9.13639587 51.38788205 -9.13381577 47.64469719 C-9.13315309 45.85911998 -9.13395163 44.07354157 -9.13629532 42.28796577 C-9.15361454 25.36335666 -9.15361454 25.36335666 -8.20797729 17.11875916 C-7.93117783 14.71194974 -7.93117783 14.71194974 -8.0625 11.125 C-7.99680948 7.84047401 -7.62715513 5.84752148 -6 3 C-4 1.75 -4 1.75 -2 1 C-1.34 0.67 -0.68 0.34 0 0 Z " fill="#2C7FFB" transform="translate(71,86)"/>
<path d="M0 0 C7 0 7 0 8.90527344 1.05053711 C9.38512695 1.5378833 9.86498047 2.02522949 10.359375 2.52734375 C10.91214111 3.06786377 11.46490723 3.60838379 12.03442383 4.1652832 C12.60056396 4.75011475 13.1667041 5.33494629 13.75 5.9375 C14.97532998 7.1406077 16.20321971 8.34111366 17.43359375 9.5390625 C18.0354248 10.13106445 18.63725586 10.72306641 19.25732422 11.33300781 C22.48217893 14.41780859 25.98524914 17.14972464 29.46484375 19.9375 C32.76481107 22.62221918 35.91923878 25.4531607 39.08203125 28.296875 C41.32190587 30.28584716 43.65532417 32.13628331 46 34 C47.83875644 35.58966382 49.66117356 37.19720837 51.484375 38.8046875 C53.46344531 40.53176438 55.45285843 42.24302713 57.453125 43.9453125 C58.06744385 44.46867187 58.6817627 44.99203125 59.31469727 45.53125 C60.53769488 46.57201762 61.76208222 47.61115499 62.98803711 48.6484375 C65.69429015 50.95389056 68.25022771 53.256296 70.73828125 55.8046875 C72.87982208 58.20096246 72.87982208 58.20096246 76 59 C76 39.53 76 20.06 76 0 C101.08 0 126.16 0 152 0 C152 39.6 152 79.2 152 120 C144.74241861 120 143.18917819 119.25169923 138.375 114.6875 C137.14771092 113.58009103 135.91983282 112.47333454 134.69140625 111.3671875 C134.07668457 110.80354492 133.46196289 110.23990234 132.82861328 109.65917969 C130.05015539 107.13816503 127.18496224 104.72514377 124.3125 102.3125 C123.78487061 101.86487305 123.25724121 101.41724609 122.71362305 100.95605469 C120.08409604 98.7289773 117.43414876 96.53411528 114.7421875 94.3828125 C113.73414063 93.57585937 112.72609375 92.76890625 111.6875 91.9375 C110.33205078 90.86822266 110.33205078 90.86822266 108.94921875 89.77734375 C108.30597656 89.19082031 107.66273438 88.60429687 107 88 C107 87.34 107 86.68 107 86 C106.41089844 85.73058594 105.82179688 85.46117187 105.21484375 85.18359375 C102.99690589 83.99834654 101.41668451 82.75150104 99.5625 81.0625 C95.83968318 77.73229663 92.06235653 74.47674437 88.25 71.25 C87.69513916 70.77828369 87.14027832 70.30656738 86.56860352 69.82055664 C84.29662556 67.89742705 82.03470708 66.02472596 79.609375 64.296875 C78.81273437 63.65492188 78.81273437 63.65492188 78 63 C78 62.34 78 61.68 78 61 C77.01 61 76.02 61 75 61 C75 80.47 75 99.94 75 120 C50.25 120 25.5 120 0 120 C0 80.4 0 40.8 0 0 Z M77 1 C76.8609079 8.49289027 76.75433343 15.98564654 76.68912697 23.47953415 C76.65782806 26.95947655 76.6153872 30.4385351 76.54736328 33.91796875 C76.46962567 37.91935645 76.44057098 41.91981769 76.4140625 45.921875 C76.38309479 47.16990906 76.35212708 48.41794312 76.32022095 49.70379639 C76.08156915 55.53841409 76.08156915 55.53841409 78.27459717 60.70471191 C80.88780523 62.56807794 82.69381159 63.02662508 85.875 62.75 C86.57625 62.5025 87.2775 62.255 88 62 C88 62.66 88 63.32 88 64 C88.99 64 89.98 64 91 64 C90.67 64.99 90.34 65.98 90 67 C92.46278801 68.231394 94.2795055 68.07159196 97 68 C97 69.32 97 70.64 97 72 C95.515 72.495 95.515 72.495 94 73 C97.55272105 75.56388043 97.55272105 75.56388043 101.8125 75.6875 C102.534375 75.460625 103.25625 75.23375 104 75 C103.505 74.01 103.505 74.01 103 73 C102.34 73 101.68 73 101 73 C101.99 71.35 102.98 69.7 104 68 C105.5625 70.25 105.5625 70.25 107 73 C106.625 74.9375 106.625 74.9375 106 77 C106.27050453 79.00946222 106.59367909 81.01354224 107 83 C109.64 83 112.28 83 115 83 C115 85.64 115 88.28 115 91 C118.28696233 91.79953138 119.71023192 92.09658936 123 91 C122.773125 91.763125 122.54625 92.52625 122.3125 93.3125 C121.71610541 95.96509872 121.71610541 95.96509872 123.125 97.75 C125.42967903 99.28645269 127.25534856 99.71849729 130 100 C130.66 99.67 131.32 99.34 132 99 C132.33 99.66 132.66 100.32 133 101 C132.34 101 131.68 101 131 101 C131 102.32 131 103.64 131 105 C133.475 104.505 133.475 104.505 136 104 C136 103.34 136 102.68 136 102 C137.98 102 139.96 102 142 102 C141.01 104.97 140.02 107.94 139 111 C140.65 111.33 142.3 111.66 144 112 C147.6274883 103.73177362 147.6274883 103.73177362 147 95 C147.66 94.67 148.32 94.34 149 94 C149 90.37 149 86.74 149 83 C148.34 83 147.68 83 147 83 C147.33 78.05 147.66 73.1 148 68 C148.99 67.67 149.98 67.34 151 67 C151.0272367 64.47909222 151.04695207 61.95848543 151.0625 59.4375 C151.07506836 58.38079102 151.07506836 58.38079102 151.08789062 57.30273438 C151.10870802 52.7853599 150.90986699 48.44633116 150 44 C149.34 43.67 148.68 43.34 148 43 C148 37.06 148 31.12 148 25 C148.66 25 149.32 25 150 25 C151.0176403 19.98391475 151.11856434 15.21391694 151.0625 10.125 C151.05798828 9.34125 151.05347656 8.5575 151.04882812 7.75 C151.03714093 5.83329986 151.01920908 3.91663952 151 2 C148.05753273 0.52876636 145.44814978 0.88075235 142.16357422 0.88647461 C141.10975052 0.88625557 141.10975052 0.88625557 140.03463745 0.8860321 C137.70795627 0.88672986 135.38135473 0.89451581 133.0546875 0.90234375 C131.44328861 0.90420842 129.83188916 0.90563209 128.2204895 0.90663147 C123.97571248 0.9104528 119.73096958 0.92027982 115.48620605 0.93133545 C111.15617332 0.94155782 106.82613507 0.94613086 102.49609375 0.95117188 C93.99738016 0.96190242 85.49869432 0.97897425 77 1 Z M5 11 C2.57800538 13.42199462 2.65092009 14.35091074 2.375 17.6875 C2.30023438 18.58210938 2.22546875 19.47671875 2.1484375 20.3984375 C2.0266138 22.53355817 2 24.67390671 2 26.8125 C2 30 2 30 1.50808716 32.19526672 C0.85060266 35.82470044 0.86063016 39.38874602 0.87060547 43.06323242 C0.86885315 43.86054276 0.86710083 44.65785309 0.86529541 45.47932434 C0.86090748 48.10472819 0.86380327 50.73006426 0.8671875 53.35546875 C0.86651378 55.18199171 0.86554319 57.00851458 0.86428833 58.83503723 C0.86281567 62.65720476 0.86495279 66.47934887 0.86962891 70.30151367 C0.87533806 75.20782162 0.87203696 80.11407501 0.86605644 85.02038097 C0.86244951 88.78892938 0.86358982 92.55746477 0.86618423 96.32601357 C0.86685251 98.13577595 0.86602854 99.94553951 0.86370468 101.75530052 C0.8611747 104.27854949 0.86502311 106.8017089 0.87060547 109.32495117 C0.86858124 110.07666595 0.86655701 110.82838074 0.86447144 111.60287476 C0.81299142 115.42805192 0.81299142 115.42805192 2 119 C25.76 119 49.52 119 74 119 C74.061875 109.863125 74.12375 100.72625 74.1875 91.3125 C74.21481201 88.43442627 74.24212402 85.55635254 74.27026367 82.59106445 C74.2790265 80.30680766 74.28667092 78.02254617 74.29296875 75.73828125 C74.30831665 74.55472046 74.32366455 73.37115967 74.33947754 72.1517334 C74.33984009 71.01538452 74.34020264 69.87903564 74.34057617 68.70825195 C74.34723801 67.72452103 74.35389984 66.7407901 74.36076355 65.72724915 C73.92855471 62.45989806 73.02381834 60.59124473 71 58 C68.67182036 57.63239269 66.3381615 57.29758419 64 57 C62.5625 54.9375 62.5625 54.9375 62 53 C61.34 53 60.68 53 60 53 C59.67 52.34 59.34 51.68 59 51 C56.0262656 49.90963072 55.11592499 49.96135834 52 51 C52.20625 50.05125 52.4125 49.1025 52.625 48.125 C52.810625 46.578125 52.810625 46.578125 53 45 C52.34 44.34 51.68 43.68 51 43 C50.01 43 49.02 43 48 43 C47.938125 42.443125 47.87625 41.88625 47.8125 41.3125 C46.66626128 38.05012827 44.50609803 36.31332126 42 34 C40.68 34.99 39.36 35.98 38 37 C35.81024227 33.71536341 35.00193437 30.79303725 34 27 C32.02 26.67 30.04 26.34 28 26 C27.855625 25.38125 27.71125 24.7625 27.5625 24.125 C27.06847775 21.96741678 27.06847775 21.96741678 26 20 C24.02 20.33 22.04 20.66 20 21 C19.67 19.02 19.34 17.04 19 15 C18.01 15 17.02 15 16 15 C15.67 14.01 15.34 13.02 15 12 C14.34 12 13.68 12 13 12 C12.67 11.01 12.34 10.02 12 9 C9.31342365 9 7.43679922 9.90344035 5 11 Z " fill="#389BCE" transform="translate(61,77)"/>
<path d="M0 0 C0.33 0 0.66 0 1 0 C1 22.77 1 45.54 1 69 C-6.25758139 69 -7.81082181 68.25169923 -12.625 63.6875 C-13.85228908 62.58009103 -15.08016718 61.47333454 -16.30859375 60.3671875 C-16.92331543 59.80354492 -17.53803711 59.23990234 -18.17138672 58.65917969 C-20.94984461 56.13816503 -23.81503776 53.72514377 -26.6875 51.3125 C-27.47894409 50.64105957 -27.47894409 50.64105957 -28.28637695 49.95605469 C-30.91590396 47.7289773 -33.56585124 45.53411528 -36.2578125 43.3828125 C-37.26585937 42.57585937 -38.27390625 41.76890625 -39.3125 40.9375 C-40.21613281 40.22464844 -41.11976563 39.51179688 -42.05078125 38.77734375 C-42.69402344 38.19082031 -43.33726562 37.60429687 -44 37 C-44 36.34 -44 35.68 -44 35 C-44.87785156 34.60167969 -44.87785156 34.60167969 -45.7734375 34.1953125 C-48.06478055 32.96522307 -49.71008944 31.62693945 -51.625 29.875 C-54.76364328 27.02598671 -58.02359627 24.51036698 -61.4375 22 C-66.5721583 17.97405046 -66.5721583 17.97405046 -67.125 14 C-67.08375 13.01 -67.0425 12.02 -67 11 C-65.68 11 -64.36 11 -63 11 C-63 11.66 -63 12.32 -63 13 C-62.01 13 -61.02 13 -60 13 C-59.67 13.99 -59.34 14.98 -59 16 C-57.35 16 -55.7 16 -54 16 C-53.67 16.66 -53.34 17.32 -53 18 C-54 21 -54 21 -56 22 C-53.64561267 23.42944945 -52.51967567 24.08661261 -49.75 23.625 C-49.1725 23.41875 -48.595 23.2125 -48 23 C-48.66 22.67 -49.32 22.34 -50 22 C-49.6875 20.125 -49.6875 20.125 -49 18 C-48.01 17.34 -47.02 16.68 -46 16 C-42.91176471 21.43529412 -42.91176471 21.43529412 -43.3125 24 C-43.539375 24.66 -43.76625 25.32 -44 26 C-44.03845443 27.99963028 -44.04544281 30.00051633 -44 32 C-41.36 32 -38.72 32 -36 32 C-34.90341064 35.28976808 -35.20046862 36.71303767 -36 40 C-33.36 40 -30.72 40 -28 40 C-28 42.31 -28 44.62 -28 47 C-22.94990405 47.93786082 -22.94990405 47.93786082 -18 47 C-18 47.99 -18 48.98 -18 50 C-18.66 50 -19.32 50 -20 50 C-20 51.32 -20 52.64 -20 54 C-18.02463255 53.65213292 -18.02463255 53.65213292 -16 53 C-15.505 52.01 -15.505 52.01 -15 51 C-13.02 51 -11.04 51 -9 51 C-9.4979837 54.73487777 -9.87491756 56.81237635 -12 60 C-10.35 60 -8.7 60 -7 60 C-6.814375 59.2265625 -6.814375 59.2265625 -6.625 58.4375 C-6 56 -6 56 -4.875 52.8125 C-3.82639541 48.24358002 -4.23276486 44.57230674 -5 40 C-4.34 40.66 -3.68 41.32 -3 42 C-2.505 37.05 -2.505 37.05 -2 32 C-2.66 32 -3.32 32 -4 32 C-5.14229879 28.57310364 -4.90861076 26.38897782 -4.5625 22.8125 C-4.46066406 21.72582031 -4.35882813 20.63914063 -4.25390625 19.51953125 C-4.17011719 18.68808594 -4.08632812 17.85664063 -4 17 C-2.68 16.67 -1.36 16.34 0 16 C0 10.72 0 5.44 0 0 Z " fill="#5D32BC" transform="translate(212,128)"/>
<path d="M0 0 C7 0 7 0 8.90527344 1.05053711 C9.38512695 1.5378833 9.86498047 2.02522949 10.359375 2.52734375 C10.91214111 3.06786377 11.46490723 3.60838379 12.03442383 4.1652832 C12.60056396 4.75011475 13.1667041 5.33494629 13.75 5.9375 C14.97532998 7.1406077 16.20321971 8.34111366 17.43359375 9.5390625 C18.0354248 10.13106445 18.63725586 10.72306641 19.25732422 11.33300781 C22.48217893 14.41780859 25.98524914 17.14972464 29.46484375 19.9375 C32.76481107 22.62221918 35.91923878 25.4531607 39.08203125 28.296875 C41.32190587 30.28584716 43.65532417 32.13628331 46 34 C47.89943449 35.65816683 49.78598245 37.33035656 51.671875 39.00390625 C55.23763211 42.06112418 58.96143445 44.92010402 62.6796875 47.7890625 C65.14046286 50.13384171 65.93871361 51.82144727 67 55 C68.52007842 56.77277259 68.52007842 56.77277259 70 58 C67.6875 58.6875 67.6875 58.6875 65 59 C63.1875 57.75 63.1875 57.75 62 56 C62 55.01 62 54.02 62 53 C61.01 53.33 60.02 53.66 59 54 C59 53.01 59 52.02 59 51 C56.69 51 54.38 51 52 51 C51.31292445 48.50935112 51 46.62113708 51 44 C50.01 43.67 49.02 43.34 48 43 C45 38.66666667 45 38.66666667 45 36 C43.68 35.67 42.36 35.34 41 35 C40.01 36.32 39.02 37.64 38 39 C35.24331998 35.04476345 34.4682121 31.77576339 34 27 C32.02 26.67 30.04 26.34 28 26 C27.34 24.02 26.68 22.04 26 20 C24.02 20.66 22.04 21.32 20 22 C19 19 19 19 19 15 C18.01 15 17.02 15 16 15 C13.8125 12.5 13.8125 12.5 12 10 C9.69 10.66 7.38 11.32 5 12 C4.67 13.65 4.34 15.3 4 17 C3.34 17 2.68 17 2 17 C2.185625 17.928125 2.37125 18.85625 2.5625 19.8125 C3.29743483 24.92599022 2.60462487 29.90075414 2 35 C1.90332031 35.81984375 1.80664062 36.6396875 1.70703125 37.484375 C1.48194104 39.32424281 1.24270546 41.16237294 1 43 C0.67 43 0.34 43 0 43 C0 28.81 0 14.62 0 0 Z " fill="#5E44D3" transform="translate(61,77)"/>
<path d="M0 0 C0.99 0 1.98 0 3 0 C3 0.66 3 1.32 3 2 C4.32 2.66 5.64 3.32 7 4 C5.68 4.66 4.36 5.32 3 6 C2.67 24.48 2.34 42.96 2 62 C-1.57744732 63.19248244 -4.35683365 63.07943718 -8.13354492 63.02172852 C-8.85574722 63.01212097 -9.57794952 63.00251343 -10.32203674 62.99261475 C-12.7082805 62.95964351 -15.09434012 62.91930412 -17.48046875 62.87890625 C-19.13527274 62.8546033 -20.79008354 62.83075982 -22.44490051 62.80735779 C-26.7998734 62.7445343 -31.15472574 62.67546272 -35.50958252 62.60510254 C-39.95359814 62.53440344 -44.39769921 62.4695959 -48.84179688 62.40429688 C-57.56129254 62.27530689 -66.28066968 62.13971803 -75 62 C-75 61.01 -75 60.02 -75 59 C-50.25 59 -25.5 59 0 59 C0 39.53 0 20.06 0 0 Z " fill="#B0E7F8" transform="translate(136,138)"/>
<path d="M0 0 C1.32 0 2.64 0 4 0 C4 0.66 4 1.32 4 2 C4.99 2 5.98 2 7 2 C7.33 2.99 7.66 3.98 8 5 C9.65 5 11.3 5 13 5 C13.33 5.66 13.66 6.32 14 7 C13 10 13 10 11 11 C13.35438733 12.42944945 14.48032433 13.08661261 17.25 12.625 C17.8275 12.41875 18.405 12.2125 19 12 C18.34 11.67 17.68 11.34 17 11 C17.3125 9.125 17.3125 9.125 18 7 C18.99 6.34 19.98 5.68 21 5 C24.08823529 10.43529412 24.08823529 10.43529412 23.6875 13 C23.460625 13.66 23.23375 14.32 23 15 C22.96154557 16.99963028 22.95455719 19.00051633 23 21 C25.64 21 28.28 21 31 21 C32.09658936 24.28976808 31.79953138 25.71303767 31 29 C33.64 29 36.28 29 39 29 C39 31.31 39 33.62 39 36 C32.09981529 34.82550047 27.69290441 31.10792316 23 26 C23 25.34 23 24.68 23 24 C22.41476563 23.73445313 21.82953125 23.46890625 21.2265625 23.1953125 C18.93521945 21.96522307 17.28991056 20.62693945 15.375 18.875 C12.23635672 16.02598671 8.97640373 13.51036698 5.5625 11 C0.4278417 6.97405046 0.4278417 6.97405046 -0.125 3 C-0.08375 2.01 -0.0425 1.02 0 0 Z " fill="#633EDF" transform="translate(145,139)"/>
<path d="M0 0 C0.33 0 0.66 0 1 0 C1 6.93 1 13.86 1 21 C-22.76 21 -46.52 21 -71 21 C-72.1482685 18.703463 -72.11561175 17.41686833 -72.09765625 14.8671875 C-72.09443359 14.06152344 -72.09121094 13.25585938 -72.08789062 12.42578125 C-72.07951172 11.58402344 -72.07113281 10.74226562 -72.0625 9.875 C-72.05798828 9.02550781 -72.05347656 8.17601562 -72.04882812 7.30078125 C-72.03702874 5.20049091 -72.01909306 3.1002367 -72 1 C-71.01 1.495 -71.01 1.495 -70 2 C-70 7.28 -70 12.56 -70 18 C-68.02 17.67 -66.04 17.34 -64 17 C-63.34 17.33 -62.68 17.66 -62 18 C-58.95826106 18.16670273 -58.95826106 18.16670273 -56 18 C-55.67 17.67 -55.34 17.34 -55 17 C-53.41960005 16.91188814 -51.83526859 16.89307964 -50.25244141 16.90234375 C-48.73549179 16.90729858 -48.73549179 16.90729858 -47.18789673 16.91235352 C-46.08690643 16.92065186 -44.98591614 16.9289502 -43.8515625 16.9375 C-42.72809418 16.94128662 -41.60462585 16.94507324 -40.44711304 16.94897461 C-35.6183437 16.96539743 -30.78965727 16.9934814 -25.9609375 17.02050781 C-22.44531644 17.03854151 -18.92970901 17.05067075 -15.4140625 17.0625 C-14.31712067 17.07079834 -13.22017883 17.07909668 -12.08999634 17.08764648 C-10.56359024 17.09260132 -10.56359024 17.09260132 -9.00634766 17.09765625 C-8.11001617 17.10289307 -7.21368469 17.10812988 -6.29019165 17.11352539 C-3.83615578 17.09475812 -3.83615578 17.09475812 -1 16 C-1.01160156 14.92878906 -1.02320313 13.85757813 -1.03515625 12.75390625 C-1.04453299 11.35677257 -1.05363331 9.95963701 -1.0625 8.5625 C-1.07087891 7.85544922 -1.07925781 7.14839844 -1.08789062 6.41992188 C-1.09653588 4.61306441 -1.05220011 2.80612397 -1 1 C-0.67 0.67 -0.34 0.34 0 0 Z " fill="#12BBF6" transform="translate(134,175)"/>
<path d="M0 0 C0.33 0.66 0.66 1.32 1 2 C26.08 2 51.16 2 77 2 C77 2.33 77 2.66 77 3 C51.92 3 26.84 3 1 3 C1 22.47 1 41.94 1 62 C-3.29425875 60.92643531 -3.74740471 60.4915227 -6 57 C-4.35 57 -2.7 57 -1 57 C-1.33 56.34 -1.66 55.68 -2 55 C-2.13395418 53.35232458 -2.20828434 51.69962778 -2.25292969 50.04711914 C-2.28255798 49.01587418 -2.31218628 47.98462921 -2.3427124 46.9221344 C-2.36883606 45.80443161 -2.39495972 44.68672882 -2.421875 43.53515625 C-2.44977112 42.39090683 -2.47766724 41.24665741 -2.50640869 40.06773376 C-2.56286775 37.64425847 -2.61647765 35.2207154 -2.66748047 32.79711914 C-2.74959046 29.0810347 -2.85309003 25.36591984 -2.95703125 21.65039062 C-3.00914024 19.29950822 -3.05996443 16.94859692 -3.109375 14.59765625 C-3.14359558 13.48197769 -3.17781616 12.36629913 -3.21307373 11.21681213 C-3.23009338 10.18241501 -3.24711304 9.14801788 -3.26464844 8.08227539 C-3.28605896 7.17119522 -3.30746948 6.26011505 -3.32952881 5.32142639 C-2.93756938 2.56019601 -2.14451676 1.70923854 0 0 Z " fill="#BFEDFA" transform="translate(136,74)"/>
<path d="M0 0 C9.35309182 -0.02256518 18.70616564 -0.04092332 28.05927849 -0.05181217 C32.4019967 -0.05703746 36.74469538 -0.06412873 41.08740234 -0.07543945 C45.27598387 -0.08628085 49.46454656 -0.09227951 53.65314102 -0.09487724 C55.25357485 -0.09672922 56.8540076 -0.10034552 58.45443344 -0.10573006 C60.69083661 -0.1129571 62.92716131 -0.11399023 65.16357422 -0.11352539 C66.43820526 -0.115746 67.7128363 -0.11796661 69.02609253 -0.12025452 C72 0 72 0 74 1 C74.05380578 3.79192205 74.09357669 6.5828141 74.125 9.375 C74.14175781 10.1690625 74.15851563 10.963125 74.17578125 11.78125 C74.19335473 13.85492015 74.10335168 15.92883241 74 18 C73.34 18.66 72.68 19.32 72 20 C70.46733418 16.93466836 70.89723529 13.73245728 70.9375 10.375 C70.94201172 9.66859375 70.94652344 8.9621875 70.95117188 8.234375 C70.96296125 6.48954725 70.98089676 4.744763 71 3 C64.29200792 1.76285277 57.65186668 1.87333644 50.84765625 1.90234375 C49.59238632 1.9037587 48.33711639 1.90517365 47.04380798 1.90663147 C43.72794649 1.91126424 40.41215548 1.92022861 37.09631348 1.93133545 C33.70418909 1.94161708 30.31205739 1.94614347 26.91992188 1.95117188 C20.27992864 1.96217428 13.63996839 1.97889247 7 2 C5.62420173 4.66211372 4.62936439 7.06296616 4 10 C4.66 10 5.32 10 6 10 C7.125 16.75 7.125 16.75 6 19 C5.01 19 4.02 19 3 19 C3.309375 20.11375 3.309375 20.11375 3.625 21.25 C4 24 4 24 2 28 C2 24.7 2 21.4 2 18 C1.34 18 0.68 18 0 18 C0 12.06 0 6.12 0 0 Z " fill="#10BEED" transform="translate(138,78)"/>
<path d="M0 0 C25.08 0 50.16 0 76 0 C76 16.83 76 33.66 76 51 C75.34 51 74.68 51 74 51 C73.505 47.535 73.505 47.535 73 44 C72.34 44 71.68 44 71 44 C71 37.73 71 31.46 71 25 C71.99 24.505 71.99 24.505 73 24 C74.44411568 16.77942162 74.56759605 9.35086723 75 2 C38.37 1.505 38.37 1.505 1 1 C1 6.94 1 12.88 1 19 C0.67 19 0.34 19 0 19 C0 12.73 0 6.46 0 0 Z " fill="#339ED6" transform="translate(137,77)"/>
<path d="M0 0 C0.33 0 0.66 0 1 0 C1 11.88 1 23.76 1 36 C-4 36 -4 36 -6 34.1875 C-6.66 33.465625 -7.32 32.74375 -8 32 C-8.9075 31.484375 -9.815 30.96875 -10.75 30.4375 C-11.4925 29.963125 -12.235 29.48875 -13 29 C-13 28.01 -13 27.02 -13 26 C-13.804375 25.87625 -14.60875 25.7525 -15.4375 25.625 C-16.7059375 25.315625 -16.7059375 25.315625 -18 25 C-18.33 24.34 -18.66 23.68 -19 23 C-18.360625 22.87625 -17.72125 22.7525 -17.0625 22.625 C-16.381875 22.41875 -15.70125 22.2125 -15 22 C-14.67 21.34 -14.34 20.68 -14 20 C-12.02 20 -10.04 20 -8 20 C-8.4979837 23.73487777 -8.87491756 25.81237635 -11 29 C-9.35 29 -7.7 29 -6 29 C-5.87625 28.484375 -5.7525 27.96875 -5.625 27.4375 C-5 25 -5 25 -3.875 21.8125 C-2.82639541 17.24358002 -3.23276486 13.57230674 -4 9 C-3.34 9.66 -2.68 10.32 -2 11 C-1.90912109 9.93458984 -1.90912109 9.93458984 -1.81640625 8.84765625 C-1.73261719 7.92855469 -1.64882812 7.00945312 -1.5625 6.0625 C-1.48128906 5.14597656 -1.40007812 4.22945312 -1.31640625 3.28515625 C-1 1 -1 1 0 0 Z " fill="#6A17EE" transform="translate(211,159)"/>
<path d="M0 0 C3.00327004 1.16255614 4.77500128 2.73673349 7 5 C8.15654544 6.05289278 9.3241851 7.09367083 10.5 8.125 C11.19351563 8.7334375 11.88703125 9.341875 12.6015625 9.96875 C14.33899952 11.44019503 16.10931651 12.87310087 17.8984375 14.28125 C18.88070312 15.0546875 19.86296875 15.828125 20.875 16.625 C21.80054687 17.33914062 22.72609375 18.05328125 23.6796875 18.7890625 C26.14046286 21.13384171 26.93871361 22.82144727 28 26 C29.52007842 27.77277259 29.52007842 27.77277259 31 29 C28.6875 29.6875 28.6875 29.6875 26 30 C24.1875 28.75 24.1875 28.75 23 27 C23 26.01 23 25.02 23 24 C22.01 24.33 21.02 24.66 20 25 C20 24.01 20 23.02 20 22 C17.69 22 15.38 22 13 22 C12.31292445 19.50935112 12 17.62113708 12 15 C11.01 14.67 10.02 14.34 9 14 C6 9.66666667 6 9.66666667 6 7 C5.01 6.67 4.02 6.34 3 6 C3 5.34 3 4.68 3 4 C2.360625 3.87625 1.72125 3.7525 1.0625 3.625 C0.381875 3.41875 -0.29875 3.2125 -1 3 C-1.33 2.34 -1.66 1.68 -2 1 C-1.34 0.67 -0.68 0.34 0 0 Z " fill="#535AD5" transform="translate(100,106)"/>
<path d="M0 0 C1.92370101 -0.00680232 3.84739316 -0.01702199 5.77105713 -0.03076172 C8.52109255 -0.0488347 11.27081608 -0.052923 14.02090454 -0.05322266 C14.8389859 -0.06036789 15.65706726 -0.06751312 16.49993896 -0.07487488 C22.04905195 -0.05337001 27.09771519 0.7699218 32.46231079 2.17724609 C32.46231079 2.50724609 32.46231079 2.83724609 32.46231079 3.17724609 C7.38231079 3.17724609 -17.69768921 3.17724609 -43.53768921 3.17724609 C-43.53768921 2.51724609 -43.53768921 1.85724609 -43.53768921 1.17724609 C-29.02855071 0.3282265 -14.53121795 0.04632678 0 0 Z " fill="#E6FDFC" transform="translate(180.53768920898438,72.82275390625)"/>
<path d="M0 0 C0.33 0 0.66 0 1 0 C1.02505615 1.16571533 1.0501123 2.33143066 1.07592773 3.5324707 C1.17004691 7.85436131 1.27025669 12.1760929 1.37231445 16.49780273 C1.41564622 18.36885866 1.45732257 20.23995369 1.49731445 22.11108398 C1.55505949 24.79943631 1.61874181 27.48759215 1.68359375 30.17578125 C1.70030624 31.01337479 1.71701874 31.85096832 1.73423767 32.71394348 C1.81914061 36.03673288 1.94250673 38.82752018 3 42 C4.2375 42.433125 4.2375 42.433125 5.5 42.875 C6.325 43.24625 7.15 43.6175 8 44 C8.8125 46.625 8.8125 46.625 9 49 C7.82780457 48.21654285 6.66236332 47.42297164 5.5 46.625 C4.8503125 46.18414062 4.200625 45.74328125 3.53125 45.2890625 C3.0259375 44.86367187 2.520625 44.43828125 2 44 C2 43.34 2 42.68 2 42 C1.01 42 0.02 42 -1 42 C-1 54.54 -1 67.08 -1 80 C-1.33 80 -1.66 80 -2 80 C-2.01401855 78.41131104 -2.01401855 78.41131104 -2.02832031 76.79052734 C-2.06833849 72.84284149 -2.1341291 68.89592529 -2.20751953 64.94873047 C-2.23566087 63.24375329 -2.25690935 61.53864731 -2.27099609 59.83349609 C-2.29252137 57.37530911 -2.339217 54.91865952 -2.390625 52.4609375 C-2.39185364 51.70444916 -2.39308228 50.94796082 -2.39434814 50.16854858 C-2.56808877 43.8220467 -4.87147216 40.24677939 -9.25 35.625 C-9.8275 35.08875 -10.405 34.5525 -11 34 C-10.67 33.34 -10.34 32.68 -10 32 C-9.52949219 32.49371094 -9.05898437 32.98742187 -8.57421875 33.49609375 C-7.64029297 34.45708984 -7.64029297 34.45708984 -6.6875 35.4375 C-5.76517578 36.39462891 -5.76517578 36.39462891 -4.82421875 37.37109375 C-2.99355944 39.2221418 -2.99355944 39.2221418 0 40 C0 26.8 0 13.6 0 0 Z " fill="#4378CA" transform="translate(137,96)"/>
<path d="M0 0 C1.32 0 2.64 0 4 0 C4 0.66 4 1.32 4 2 C4.99 2 5.98 2 7 2 C7.33 2.99 7.66 3.98 8 5 C9.65 5 11.3 5 13 5 C13.33 5.66 13.66 6.32 14 7 C13 10 13 10 11 11 C11.66 11.45375 12.32 11.9075 13 12.375 C13.66 12.91125 14.32 13.4475 15 14 C15 14.66 15 15.32 15 16 C16.65 16.33 18.3 16.66 20 17 C20.33 18.32 20.66 19.64 21 21 C20.34 21.33 19.68 21.66 19 22 C18.53851563 21.5875 18.07703125 21.175 17.6015625 20.75 C16.94929688 20.1725 16.29703125 19.595 15.625 19 C14.90441406 18.360625 14.18382812 17.72125 13.44140625 17.0625 C11.7683471 15.64909963 10.04245741 14.29661147 8.27734375 13 C1.38156903 7.91994726 1.38156903 7.91994726 0.14453125 4.9375 C-0.125 3 -0.125 3 0 0 Z " fill="#5E5DD0" transform="translate(145,139)"/>
<path d="M0 0 C3.50110364 1.32800483 6.12979673 3.64496142 9 6 C9.99 6.66 10.98 7.32 12 8 C12 8.99 12 9.98 12 11 C11.34 11 10.68 11 10 11 C9.67 10.34 9.34 9.68 9 9 C6.69 9.66 4.38 10.32 2 11 C1.67 12.65 1.34 14.3 1 16 C0.34 16 -0.32 16 -1 16 C-0.814375 16.928125 -0.62875 17.85625 -0.4375 18.8125 C0.31741955 23.90820694 -0.40247867 28.91647238 -1 34 C-1.33 34 -1.66 34 -2 34 C-2 23.11 -2 12.22 -2 1 C-1.34 0.67 -0.68 0.34 0 0 Z " fill="#5E27E7" transform="translate(64,78)"/>
<path d="M0 0 C0.33 0 0.66 0 1 0 C1.02505615 0.69037354 1.0501123 1.38074707 1.07592773 2.09204102 C1.1926566 5.24901409 1.31503178 8.40574457 1.4375 11.5625 C1.47681641 12.64853516 1.51613281 13.73457031 1.55664062 14.85351562 C1.77201355 20.30410746 2.08159222 25.62075441 3 31 C-0.50776784 32.60355101 -3.14354879 33.22036864 -7 33 C-7.33 32.34 -7.66 31.68 -8 31 C-10.61941217 29.25372522 -12.03824877 28.61277612 -15 28 C-15.0928125 27.1028125 -15.0928125 27.1028125 -15.1875 26.1875 C-15.8292145 23.75544324 -15.8292145 23.75544324 -18.4375 22.5625 C-21.4803882 20.70708037 -22.00487602 19.34723519 -23 16 C-21.81001879 16.8716226 -20.62318786 17.74754599 -19.4375 18.625 C-18.70402344 19.16769531 -17.97054687 19.71039063 -17.21484375 20.26953125 C-14.64323881 22.27873935 -12.32235629 24.47920812 -10.03125 26.80078125 C-7.23300231 28.6343717 -7.23300231 28.6343717 0 29 C0 19.43 0 9.86 0 0 Z " fill="#FCF1FD" transform="translate(214,168)"/>
<path d="M0 0 C7 0 7 0 8.98461914 1.11401367 C9.49629639 1.62681885 10.00797363 2.13962402 10.53515625 2.66796875 C11.40817383 3.51391602 11.40817383 3.51391602 12.29882812 4.37695312 C12.88083984 4.97443359 13.46285156 5.57191406 14.0625 6.1875 C15.23954985 7.34901124 16.41792192 8.5091842 17.59765625 9.66796875 C18.1611377 10.22919434 18.72461914 10.79041992 19.30517578 11.36865234 C21.75708456 13.72872933 24.35389591 15.86136793 27 18 C25.68 18.33 24.36 18.66 23 19 C23 18.01 23 17.02 23 16 C22.01 16 21.02 16 20 16 C19.34 15.01 18.68 14.02 18 13 C17.01 12.67 16.02 12.34 15 12 C14.67 11.01 14.34 10.02 14 9 C12.34051852 7.98812105 10.67419438 6.9873454 9 6 C9 5.34 9 4.68 9 4 C5.08936776 2.52952664 5.08936776 2.52952664 1 2 C1 15.53 1 29.06 1 43 C0.67 43 0.34 43 0 43 C0 28.81 0 14.62 0 0 Z " fill="#6047B6" transform="translate(61,77)"/>
<path d="M0 0 C0.33 0 0.66 0 1 0 C1 10.56 1 21.12 1 32 C-0.65 32 -2.3 32 -4 32 C-5.14229879 28.57310364 -4.90861076 26.38897782 -4.5625 22.8125 C-4.46066406 21.72582031 -4.35882813 20.63914063 -4.25390625 19.51953125 C-4.17011719 18.68808594 -4.08632812 17.85664063 -4 17 C-2.68 16.67 -1.36 16.34 0 16 C0 10.72 0 5.44 0 0 Z " fill="#4A51E0" transform="translate(212,128)"/>
<path d="M0 0 C0.99 0.495 0.99 0.495 2 1 C4 7.11111111 4 7.11111111 4 10 C4.66 10 5.32 10 6 10 C7.125 16.75 7.125 16.75 6 19 C5.01 19 4.02 19 3 19 C3.309375 20.11375 3.309375 20.11375 3.625 21.25 C4 24 4 24 2 28 C2 24.7 2 21.4 2 18 C1.34 18 0.68 18 0 18 C0 12.06 0 6.12 0 0 Z " fill="#1BAAF6" transform="translate(138,78)"/>
<path d="M0 0 C2.475 0.99 2.475 0.99 5 2 C5 2.66 5 3.32 5 4 C5.763125 4.103125 6.52625 4.20625 7.3125 4.3125 C12.03989995 5.52183487 14.07199517 9.26426971 17 13 C14.6875 13.6875 14.6875 13.6875 12 14 C10.1875 12.75 10.1875 12.75 9 11 C9 10.01 9 9.02 9 8 C8.01 8.33 7.02 8.66 6 9 C6 8.01 6 7.02 6 6 C3.69 6 1.38 6 -1 6 C-1.625 4.125 -1.625 4.125 -2 2 C-1.34 1.34 -0.68 0.68 0 0 Z " fill="#4062EE" transform="translate(114,122)"/>
<path d="M0 0 C0.33 0 0.66 0 1 0 C2.05728087 6.85983809 2.11639843 13.56783224 2.0625 20.5 C2.05798828 21.60859375 2.05347656 22.7171875 2.04882812 23.859375 C2.03713158 26.57297399 2.02074086 29.28645761 2 32 C2.66 32 3.32 32 4 32 C3.3405469 35.69293736 2.47070566 36.70572579 0 40 C0 26.8 0 13.6 0 0 Z " fill="#ECFDFC" transform="translate(138,160)"/>
<path d="M0 0 C5 2 5 2 6 4 C4.68 4.33 3.36 4.66 2 5 C1.67 22.49 1.34 39.98 1 58 C0.67 58 0.34 58 0 58 C0 38.86 0 19.72 0 0 Z " fill="#CDFBFE" transform="translate(137,139)"/>
<path d="M0 0 C0.66 0 1.32 0 2 0 C2 5.28 2 10.56 2 16 C0.68 16.33 -0.64 16.66 -2 17 C-2.98783094 14.03650719 -3.13410525 12.0287337 -3.125 8.9375 C-3.12757813 8.05964844 -3.13015625 7.18179688 -3.1328125 6.27734375 C-3 4 -3 4 -2 2 C-1.34 2 -0.68 2 0 2 C0 1.34 0 0.68 0 0 Z " fill="#3E66F1" transform="translate(210,128)"/>
<path d="M0 0 C0.33 0 0.66 0 1 0 C1 10.89 1 21.78 1 33 C0.67 33 0.34 33 0 33 C0 27.72 0 22.44 0 17 C-0.99 17 -1.98 17 -3 17 C-4.35439668 14.29120665 -4.06501451 11.99066732 -4 9 C-3.34 9.66 -2.68 10.32 -2 11 C-1.93941406 10.28972656 -1.87882813 9.57945312 -1.81640625 8.84765625 C-1.69072266 7.46900391 -1.69072266 7.46900391 -1.5625 6.0625 C-1.48128906 5.14597656 -1.40007812 4.22945312 -1.31640625 3.28515625 C-1 1 -1 1 0 0 Z " fill="#592BEB" transform="translate(211,159)"/>
<path d="M0 0 C1.32 0 2.64 0 4 0 C4 0.66 4 1.32 4 2 C4.99 2 5.98 2 7 2 C7.33 2.99 7.66 3.98 8 5 C9.65 5 11.3 5 13 5 C13.33 5.66 13.66 6.32 14 7 C13.67 7.99 13.34 8.98 13 10 C11.68 10 10.36 10 9 10 C9 9.01 9 8.02 9 7 C8.071875 7.061875 7.14375 7.12375 6.1875 7.1875 C3 7 3 7 1.125 5.75 C0 4 0 4 0 0 Z " fill="#455CEF" transform="translate(145,139)"/>
<path d="M0 0 C2.1875 1.9375 2.1875 1.9375 4 5 C3.44962537 8.19537891 2.31333336 11.04499994 1 14 C0.67 13.34 0.34 12.68 0 12 C-2.52733235 11.34444881 -2.52733235 11.34444881 -5 11 C-5 10.01 -5 9.02 -5 8 C-3.68 7.67 -2.36 7.34 -1 7 C-1.66 6.67 -2.32 6.34 -3 6 C-2.42655063 3.13275314 -2.1385485 2.1385485 0 0 Z " fill="#4756ED" transform="translate(165,144)"/>
<path d="M0 0 C0.33 0 0.66 0 1 0 C1 7.59 1 15.18 1 23 C0.34 23.33 -0.32 23.66 -1 24 C-2.20529983 15.86422612 -3.27180772 7.77054333 0 0 Z " fill="#2593F2" transform="translate(134,152)"/>
<path d="M0 0 C0.33 0 0.66 0 1 0 C1.33 5.28 1.66 10.56 2 16 C2.66 16 3.32 16 4 16 C4.38133299 17.9914056 4.71325582 19.99279077 5 22 C4.67 22.33 4.34 22.66 4 23 C4.66 23.33 5.32 23.66 6 24 C6 24.99 6 25.98 6 27 C3.13275314 26.42655063 2.1385485 26.1385485 0 24 C-0.22705078 21.56982422 -0.22705078 21.56982422 -0.1953125 18.5546875 C-0.18886719 17.47832031 -0.18242187 16.40195313 -0.17578125 15.29296875 C-0.15902344 14.16503906 -0.14226562 13.03710938 -0.125 11.875 C-0.11597656 10.73933594 -0.10695312 9.60367188 -0.09765625 8.43359375 C-0.07403098 5.62218701 -0.04109013 2.81119702 0 0 Z " fill="#3A77E4" transform="translate(138,112)"/>
<path d="M0 0 C1.3921875 1.2065625 1.3921875 1.2065625 2.8125 2.4375 C6.97052003 6.01730866 11.25465151 9.43456894 15.546875 12.8515625 C17.74285648 14.77479469 19.36795469 16.59545324 21 19 C19.68 19 18.36 19 17 19 C17 18.01 17 17.02 17 16 C16.01 16 15.02 16 14 16 C13.34 15.01 12.68 14.02 12 13 C11.01 12.67 10.02 12.34 9 12 C8.67 11.01 8.34 10.02 8 9 C6.34051852 7.98812105 4.67419438 6.9873454 3 6 C3 5.34 3 4.68 3 4 C2.01 3.67 1.02 3.34 0 3 C0 2.01 0 1.02 0 0 Z " fill="#7141C4" transform="translate(67,77)"/>
<path d="M0 0 C4.02719686 2.94979095 7.91997205 5.89349081 11.5625 9.3125 C14.96501109 12.31517684 17.51290446 12.81685324 22 13 C22 13.33 22 13.66 22 14 C15.9453125 14.9765625 15.9453125 14.9765625 14 15 C13.34 14.34 12.68 13.68 12 13 C9.93125966 12.3574765 9.93125966 12.3574765 8 12 C7.9071875 11.1028125 7.9071875 11.1028125 7.8125 10.1875 C7.1707855 7.75544324 7.1707855 7.75544324 4.5625 6.5625 C1.5196118 4.70708037 0.99512398 3.34723519 0 0 Z " fill="#E2C8F6" transform="translate(191,184)"/>
<path d="M0 0 C4.55635064 1.27153971 7.35614046 3.04551929 11 6 C11.99 6 12.98 6 14 6 C16.125 10.625 16.125 10.625 15 14 C13.24884832 12.41792503 11.49905722 10.83438771 9.75 9.25 C8.77546875 8.36828125 7.8009375 7.4865625 6.796875 6.578125 C4.4719203 4.43501033 2.21417093 2.25634562 0 0 Z " fill="#DFEBFB" transform="translate(114,117)"/>
<path d="M0 0 C4.35647645 1.44950405 7.31757289 3.67747112 10.8125 6.625 C11.78832031 7.44226563 12.76414063 8.25953125 13.76953125 9.1015625 C14.50558594 9.72804687 15.24164063 10.35453125 16 11 C15.01 11.495 15.01 11.495 14 12 C7.42985377 9.52167372 3.5926208 5.91044067 0 0 Z " fill="#ECE0FC" transform="translate(175,172)"/>
<path d="M0 0 C4.48320008 1.40900574 6.75546169 3.67434824 10 7 C12.95178633 9.01585408 15.47891813 10.3479478 19 11 C18.01 12.32 17.02 13.64 16 15 C14.2693809 13.43910887 12.54057173 11.87621088 10.8125 10.3125 C9.84957031 9.44238281 8.88664062 8.57226562 7.89453125 7.67578125 C5.19008824 5.17572259 2.58439196 2.62218928 0 0 Z " fill="#E0CCFC" transform="translate(79,87)"/>
<path d="M0 0 C1.9375 0.3125 1.9375 0.3125 4 1 C4.33 1.99 4.66 2.98 5 4 C5.99 4 6.98 4 8 4 C8 4.99 8 5.98 8 7 C9.65 7 11.3 7 13 7 C12.01 8.485 12.01 8.485 11 10 C11 9.34 11 8.68 11 8 C9.02 8.66 7.04 9.32 5 10 C4 7 4 7 4 3 C3.01 3 2.02 3 1 3 C0.67 2.01 0.34 1.02 0 0 Z " fill="#5B33E9" transform="translate(76,89)"/>
<path d="M0 0 C0.66 0 1.32 0 2 0 C2.07347656 1.60681641 2.07347656 1.60681641 2.1484375 3.24609375 C2.22345294 4.64325639 2.2990013 6.0403905 2.375 7.4375 C2.42140625 8.49807617 2.42140625 8.49807617 2.46875 9.58007812 C2.57280629 11.39239188 2.77919892 13.19817988 3 15 C3.66 15.33 4.32 15.66 5 16 C3.35 16 1.7 16 0 16 C0 10.72 0 5.44 0 0 Z " fill="#2796E9" transform="translate(138,96)"/>
<path d="M0 0 C3.96413199 3.96413199 3.96413199 3.96413199 4.09765625 7.8203125 C4.08605469 8.91085938 4.07445312 10.00140625 4.0625 11.125 C4.05347656 12.22070312 4.04445312 13.31640625 4.03515625 14.4453125 C4.02355469 15.28835937 4.01195312 16.13140625 4 17 C3.67 17 3.34 17 3 17 C3 14.36 3 11.72 3 9 C1.68 9.33 0.36 9.66 -1 10 C-0.67 6.7 -0.34 3.4 0 0 Z " fill="#3673F1" transform="translate(131,135)"/>
<path d="M0 0 C2.31 0.33 4.62 0.66 7 1 C6.67 1.99 6.34 2.98 6 4 C7.65 4 9.3 4 11 4 C10.67 5.32 10.34 6.64 10 8 C2.12993039 4.88167053 2.12993039 4.88167053 0 2 C0 1.34 0 0.68 0 0 Z " fill="#EEF7F4" transform="translate(109,111)"/>
<path d="M0 0 C2.475 0.99 2.475 0.99 5 2 C5 2.99 5 3.98 5 5 C5.99 5.66 6.98 6.32 8 7 C6.68 8.65 5.36 10.3 4 12 C1.24331998 8.04476345 0.4682121 4.77576339 0 0 Z " fill="#4E44F1" transform="translate(95,104)"/>
<path d="M0 0 C0.33 1.32 0.66 2.64 1 4 C2.65 4 4.3 4 6 4 C5.01 5.485 5.01 5.485 4 7 C4 7.99 4 8.98 4 10 C3.01 9.67 2.02 9.34 1 9 C1 8.34 1 7.68 1 7 C0.01 6.67 -0.98 6.34 -2 6 C-1.34 4.02 -0.68 2.04 0 0 Z " fill="#5B4BE1" transform="translate(167,156)"/>
<path d="M0 0 C1.33855056 0.78281305 2.67073644 1.57651877 4 2.375 C5.11375 3.03628906 5.11375 3.03628906 6.25 3.7109375 C6.8275 4.13632813 7.405 4.56171875 8 5 C8 5.66 8 6.32 8 7 C10.31 7.66 12.62 8.32 15 9 C13.02 9.99 13.02 9.99 11 11 C6.81402577 8.37159758 3.32705097 5.71846873 0 2 C0 1.34 0 0.68 0 0 Z " fill="#682DBF" transform="translate(196,186)"/>
<path d="M0 0 C2.97066943 1.14993655 4.86207842 2.6761722 7 5 C7.556875 5.556875 8.11375 6.11375 8.6875 6.6875 C9.3371875 7.3371875 9.3371875 7.3371875 10 8 C9.34 8 8.68 8 8 8 C7.67 8.66 7.34 9.32 7 10 C6.67 9.01 6.34 8.02 6 7 C5.01 6.67 4.02 6.34 3 6 C3 5.34 3 4.68 3 4 C2.360625 3.87625 1.72125 3.7525 1.0625 3.625 C0.381875 3.41875 -0.29875 3.2125 -1 3 C-1.33 2.34 -1.66 1.68 -2 1 C-1.34 0.67 -0.68 0.34 0 0 Z " fill="#5E57D7" transform="translate(100,106)"/>
<path d="M0 0 C0.33 0 0.66 0 1 0 C1.05380578 2.79192205 1.09357669 5.5828141 1.125 8.375 C1.14175781 9.1690625 1.15851563 9.963125 1.17578125 10.78125 C1.19335473 12.85492015 1.10335168 14.92883241 1 17 C0.34 17.66 -0.32 18.32 -1 19 C-2.4783226 16.04335481 -2.06032783 13.25770263 -2 10 C-1.67 10 -1.34 10 -1 10 C-0.67 6.7 -0.34 3.4 0 0 Z " fill="#18ADEC" transform="translate(211,79)"/>
<path d="M0 0 C0.33 0 0.66 0 1 0 C1.1799928 5.21979128 0.97094808 9.07262981 -1 14 C-1.66 13.67 -2.32 13.34 -3 13 C-3 10.69 -3 8.38 -3 6 C-2.34 5.67 -1.68 5.34 -1 5 C-0.34444881 2.47266765 -0.34444881 2.47266765 0 0 Z " fill="#219AED" transform="translate(211,96)"/>
<path d="M0 0 C0.66 0 1.32 0 2 0 C2 5.28 2 10.56 2 16 C1.67 16 1.34 16 1 16 C0.67 13.03 0.34 10.06 0 7 C-0.33 7 -0.66 7 -1 7 C-1.04254356 5.00045254 -1.04080783 2.99958364 -1 1 C-0.67 0.67 -0.34 0.34 0 0 Z " fill="#671EF7" transform="translate(209,176)"/>
<path d="M0 0 C4.11979807 1.37326602 7.04297546 4.08595092 9 8 C8.67 8.66 8.34 9.32 8 10 C7.34 10 6.68 10 6 10 C6 9.01 6 8.02 6 7 C5.195625 6.773125 4.39125 6.54625 3.5625 6.3125 C2.716875 5.879375 1.87125 5.44625 1 5 C0.1875 2.375 0.1875 2.375 0 0 Z " fill="#EEE4FC" transform="translate(165,162)"/>
<path d="M0 0 C5 2 5 2 6 4 C4.68 4.33 3.36 4.66 2 5 C1.67 8.3 1.34 11.6 1 15 C0.67 15 0.34 15 0 15 C0 10.05 0 5.1 0 0 Z " fill="#DCEEFD" transform="translate(137,139)"/>
<path d="M0 0 C0.66 0.66 1.32 1.32 2 2 C-0.25740623 4.33524782 -2.2805761 6.18705073 -5 8 C-5.99 8 -6.98 8 -8 8 C-8 7.34 -8 6.68 -8 6 C-7.01 5.67 -6.02 5.34 -5 5 C-4.67 4.34 -4.34 3.68 -4 3 C-3 1 -3 1 0 0 Z " fill="#FCFDEC" transform="translate(168,168)"/>
<path d="M0 0 C1 3 1 3 0 6 C-1.65 6 -3.3 6 -5 6 C-5.33 4.68 -5.66 3.36 -6 2 C-3 0 -3 0 0 0 Z " fill="#513DF2" transform="translate(176,160)"/>
<path d="M0 0 C2.31 0 4.62 0 7 0 C7.33 0.66 7.66 1.32 8 2 C7.0625 4.125 7.0625 4.125 6 6 C5.67 5.34 5.34 4.68 5 4 C2.47266765 3.34444881 2.47266765 3.34444881 0 3 C0 2.01 0 1.02 0 0 Z " fill="#4B46FB" transform="translate(160,152)"/>
<path d="M0 0 C1.093125 0.185625 2.18625 0.37125 3.3125 0.5625 C6.93624133 1.2578068 6.93624133 1.2578068 10 0 C10 0.99 10 1.98 10 3 C9.34 3 8.68 3 8 3 C7.67 4.32 7.34 5.64 7 7 C5.83040013 6.02433888 4.66438823 5.044375 3.5 4.0625 C2.8503125 3.51722656 2.200625 2.97195312 1.53125 2.41015625 C1.0259375 1.94480469 0.520625 1.47945312 0 1 C0 0.67 0 0.34 0 0 Z " fill="#6027EF" transform="translate(184,175)"/>
<path d="M0 0 C1.98 0 3.96 0 6 0 C6 3 6 3 5 6 C5.66 6 6.32 6 7 6 C6.67 6.66 6.34 7.32 6 8 C5.01 7.34 4.02 6.68 3 6 C3 5.34 3 4.68 3 4 C1.68 3.34 0.36 2.68 -1 2 C-0.67 1.34 -0.34 0.68 0 0 Z " fill="#E3E1F6" transform="translate(101,104)"/>
<path d="M0 0 C2.64 0.33 5.28 0.66 8 1 C8.66 2.65 9.32 4.3 10 6 C5.56909529 4.79157144 3.01887244 3.48331435 0 0 Z " fill="#5662D4" transform="translate(146,145)"/>
<path d="M0 0 C0.33 0 0.66 0 1 0 C1.38133299 1.9914056 1.71325582 3.99279077 2 6 C1.67 6.33 1.34 6.66 1 7 C1.66 7.33 2.32 7.66 3 8 C3 8.99 3 9.98 3 11 C1.68 10.67 0.36 10.34 -1 10 C-1.125 2.25 -1.125 2.25 0 0 Z " fill="#3C6AF7" transform="translate(141,128)"/>
<path d="M0 0 C0.99 0.33 1.98 0.66 3 1 C2.50168276 4.68754757 1.89932357 6.60490662 -1 9 C-1.125 2.25 -1.125 2.25 0 0 Z " fill="#3777FC" transform="translate(141,121)"/>
<path d="M0 0 C0.66 0.66 1.32 1.32 2 2 C4.31765729 2.71927295 6.65095874 3.3909893 9 4 C5.1496895 6.56687367 3.41430237 5.83288724 -1 5 C-0.67 3.35 -0.34 1.7 0 0 Z " fill="#EED9FD" transform="translate(62,72)"/>
<path d="M0 0 C1.31611677 0.95336021 2.62778961 1.91285774 3.9375 2.875 C4.66839844 3.40867188 5.39929688 3.94234375 6.15234375 4.4921875 C8 6 8 6 9 8 C3.5 6.53333333 3.5 6.53333333 1.125 4 C0 2 0 2 0 0 Z " fill="#EAD0FC" transform="translate(191,184)"/>
<path d="M0 0 C1.31611677 0.95336021 2.62778961 1.91285774 3.9375 2.875 C4.66839844 3.40867187 5.39929688 3.94234375 6.15234375 4.4921875 C8 6 8 6 9 8 C7.68 8 6.36 8 5 8 C5 7.01 5 6.02 5 5 C4.01 5 3.02 5 2 5 C1.34 3.35 0.68 1.7 0 0 Z " fill="#603EBE" transform="translate(79,88)"/>
<path d="M0 0 C3.465 1.485 3.465 1.485 7 3 C6.34 4.32 5.68 5.64 5 7 C3.02 5.35 1.04 3.7 -1 2 C-0.67 1.34 -0.34 0.68 0 0 Z " fill="#EEDAF9" transform="translate(73,80)"/>
<path d="M0 0 C0.99 0.33 1.98 0.66 3 1 C3 1.66 3 2.32 3 3 C2.01 3.495 2.01 3.495 1 4 C0.67 4.99 0.34 5.98 0 7 C-0.66 7 -1.32 7 -2 7 C-2 5.02 -2 3.04 -2 1 C-1.34 0.67 -0.68 0.34 0 0 Z " fill="#FCFBEC" transform="translate(146,149)"/>
<path d="M0 0 C1.31611677 0.95336021 2.62778961 1.91285774 3.9375 2.875 C4.66839844 3.40867187 5.39929688 3.94234375 6.15234375 4.4921875 C8 6 8 6 9 8 C5.625 7.375 5.625 7.375 2 6 C0.5625 2.875 0.5625 2.875 0 0 Z " fill="#6472D7" transform="translate(117,120)"/>
<path d="M0 0 C2.475 0.99 2.475 0.99 5 2 C5 2.66 5 3.32 5 4 C2.69 4 0.38 4 -2 4 C-1.34 2.68 -0.68 1.36 0 0 Z " fill="#4259F9" transform="translate(114,122)"/>
<path d="M0 0 C0.66 0 1.32 0 2 0 C2.33 2.31 2.66 4.62 3 7 C2.01 7.33 1.02 7.66 0 8 C0 5.36 0 2.72 0 0 Z " fill="#08B4F1" transform="translate(142,88)"/>
<path d="M0 0 C0.99 0 1.98 0 3 0 C2.67 2.31 2.34 4.62 2 7 C1.34 7 0.68 7 0 7 C0 4.69 0 2.38 0 0 Z " fill="#2887FD" transform="translate(139,112)"/>
<path d="M0 0 C2.79828356 0.38597015 3.8205884 0.80136573 5.75 2.9375 C7 5 7 5 7 7 C6.01 7 5.02 7 4 7 C4 5.68 4 4.36 4 3 C3.01 3 2.02 3 1 3 C0.67 2.01 0.34 1.02 0 0 Z " fill="#5D27EF" transform="translate(76,89)"/>
<path d="M0 0 C1.32 1.32 2.64 2.64 4 4 C3.01 4.66 2.02 5.32 1 6 C0.01 5.67 -0.98 5.34 -2 5 C-1 2 -1 2 0 0 Z " fill="#E7E9F1" transform="translate(154,152)"/>
<path d="M0 0 C2.64 0.33 5.28 0.66 8 1 C7.34 2.65 6.68 4.3 6 6 C3.97945196 4.35830472 1.97956942 2.69088222 0 1 C0 0.67 0 0.34 0 0 Z " fill="#EDE1FD" transform="translate(90,96)"/>
</svg>
